<svg xmlns="http://www.w3.org/2000/svg" viewBox="0 0 64 64"><title>Flat</title><rect width="64" height="64" style="fill:#8c2d88"/><path d="M53,53.67V16.33A5.35,5.35,0,0,0,47.67,11H10.33A5.35,5.35,0,0,0,5,16.33V53.67A5.35,5.35,0,0,0,10.33,59H47.67A5.35,5.35,0,0,0,53,53.67Z" style="fill:#312a6f"/><path d="M59,47.67V10.33A5.35,5.35,0,0,0,53.67,5H16.33A5.35,5.35,0,0,0,11,10.33V47.67A5.35,5.35,0,0,0,16.33,53H53.67A5.35,5.35,0,0,0,59,47.67ZM25.67,33l6.67,8,9.33-12,12,16H16.33l9.33-12Z" style="fill:#00b4e5"/></svg>